<?xml version="1.0" encoding="UTF-8"?>
<svg width="105px" height="109px" viewBox="0 0 105 109" version="1.1" xmlns="http://www.w3.org/2000/svg" xmlns:xlink="http://www.w3.org/1999/xlink">
    <!-- Generator: Sketch 50.2 (55047) - http://www.bohemiancoding.com/sketch -->
    <title>Artboard 1</title>
    <desc>Created with Sketch.</desc>
    <defs>
        <linearGradient x1="18.7156354%" y1="75.5015236%" x2="91.7502637%" y2="41.7428475%" id="linearGradient-1">
            <stop stop-color="#FFF3AB" offset="0%"></stop>
            <stop stop-color="#FFB2B2" offset="100%"></stop>
        </linearGradient>
    </defs>
    <g id="Artboard-1" stroke="none" stroke-width="1" fill="none" fill-rule="evenodd">
        <path d="M100.2413,59.99 C99.3983,53.156 95.2173,48.528 88.7663,47.292 C88.5763,47.256 88.3783,47.237 88.1813,47.21 C88.2093,45.148 87.7443,43.373 87.1563,41.831 C87.8943,41.186 88.5233,40.476 89.0463,39.696 C91.6163,35.852 90.5363,31.743 90.0753,29.988 C89.5923,28.148 88.3403,25.929 86.4603,23.999 C89.1823,23.506 91.3453,22.359 92.7963,20.597 C94.0543,19.071 95.3353,16.376 94.3033,12.205 C93.2883,8.101 90.1253,6.638 87.5043,6.637 C86.4713,6.637 84.8443,6.876 82.7023,7.932 C82.6233,7.789 82.5383,7.649 82.4503,7.511 C81.1663,5.524 79.0853,4.384 76.7383,4.384 C73.8593,4.446 71.5273,5.915 70.3393,8.317 C69.7253,9.556 69.4513,10.968 69.4793,12.456 C65.6533,9.948 61.0273,8.613 56.0403,8.613 C51.6113,8.613 47.0643,9.652 42.5263,11.702 C38.3143,13.604 34.8033,14.569 32.0933,14.569 C29.6023,14.569 28.3033,13.788 26.8013,12.884 C25.8043,12.284 24.6773,11.606 23.2813,11.293 C22.9603,11.221 22.6333,11.185 22.3063,11.185 C21.6543,11.185 21.0063,11.328 20.4133,11.609 C18.3453,12.586 16.7323,14.532 16.0953,16.813 C15.8673,17.633 15.7173,18.664 15.8293,19.854 C8.2953,22.661 4.3843,28.87 4.3843,34.458 C4.3843,35.394 4.7173,36.303 5.3273,37.032 C6.0443,37.889 6.9033,38.578 7.9003,39.098 C6.6033,43.308 7.0483,47.691 9.2103,50.815 C7.2983,52.155 5.5513,54.63 5.0723,58.501 C4.1903,65.638 6.2743,73.501 10.1403,77.622 C10.5633,78.073 11.0063,78.471 11.4623,78.823 C11.3923,84.324 12.1799043,91.3464922 17.0769043,96.6044922 C22.2889043,102.202492 30.8593,104.834717 42.5263,104.834717 C55.7673,104.834717 66.2045059,102.173492 73.3435059,96.6044922 C77.9275059,93.0284922 80.608468,88.9791816 82.082468,85.2111816 C82.490468,85.2581816 83.0204531,85.2111816 83.4394531,85.2111816 C85.1654531,85.2111816 86.9583,84.4584473 88.7663,83.6584473 C96.8503,80.0764473 101.2603,68.258 100.2413,59.99 Z" id="Stroke-3" stroke="#EBECF4" stroke-width="8.767" fill="#F0D7CF"></path>
        <polygon id="Path" fill="url(#linearGradient-1)" points="81.4404297 44.9335937 57.4785156 44.9335937 45.5332031 49.3710938 40.9902344 47.1523438 35.7285156 50.6582031 32.0214844 49.3710938 23.4375 53.1953125 11.703125 50.6582031 9.52832031 44.9335937 9.52832031 38.7470703 6.19628906 35.4824219 9.52832031 27.1113281 18.1035156 20.6181641 20.8837891 12.9150391 32.0214844 16.4003906 45.5332031 12.9150391 57.4785156 10.8378906 71.1611328 16.4003906 72.5996094 9.46386719 78.1611328 7.046875 81.4404297 10.8378906 88.9609375 9.46386719 93.2255859 12.9150391 91.4638672 20.6181641 86.0634766 22.0859375 81.4404297 22.0859375 88.9609375 30.1210937 88.9609375 35.4824219"></polygon>
        <path d="M87.6446,61.0095 C88.8276,61.0095 89.7866,60.0895 89.7866,58.9535 C89.7866,57.8185 88.8276,56.8985 87.6446,56.8985 C85.2116,56.8985 80.9576,58.2805 79.7846,67.5455 C79.6406,68.6735 80.4766,69.6975 81.6516,69.8345 C81.7396,69.8455 81.8276,69.8505 81.9136,69.8505 C82.9806,69.8505 83.9046,69.0855 84.0376,68.0415 C84.0516,67.9195 84.0716,67.8035 84.0876,67.6835 C85.0296,68.1865 85.3466,69.1995 85.1606,69.9765 C84.9786,70.7395 84.3726,71.1265 83.3606,71.1265 C82.1776,71.1265 81.2186,72.0475 81.2186,73.1835 C81.2186,74.3195 82.1776,75.2385 83.3606,75.2385 C86.3596,75.2385 88.7056,73.5345 89.3356,70.8975 C90.0036,68.1075 88.5396,65.1745 85.8526,63.9235 C85.5986,63.8055 85.3326,63.7425 85.0676,63.7255 C85.7506,62.0085 86.6546,61.0095 87.6446,61.0095" id="Fill-5" fill="#1E1D28"></path>
        <path d="M49.2227,86.0661 C48.6287,85.8101 47.7917,84.6321 47.8967,83.5911 C48.0097,82.4621 47.1477,81.4571 45.9697,81.3481 C44.7917,81.2461 43.7447,82.0681 43.6317,83.1981 C43.5787,83.7221 43.6017,84.2381 43.6807,84.7381 C39.8597,86.1881 36.4367,86.9101 32.9717,86.9861 C31.7877,87.0111 30.8517,87.9531 30.8777,89.0871 C30.9057,90.2081 31.8587,91.0971 33.0187,91.0971 C33.0357,91.0971 33.0517,91.0971 33.0687,91.0961 C37.1487,91.0071 41.1287,90.1601 45.5537,88.4501 C46.1347,89.0551 46.7967,89.5281 47.4697,89.8181 C47.7547,89.9411 48.0517,89.9991 48.3447,89.9991 C49.1627,89.9991 49.9457,89.5451 50.3007,88.7831 C50.7847,87.7471 50.3017,86.5301 49.2227,86.0661" id="Fill-7" fill="#1E1D28"></path>
        <path d="M43.8165,57.7165 C44.1105,57.7165 44.4085,57.6575 44.6935,57.5355 C53.4905,53.7395 57.6205,54.1455 61.1195,55.9235 C62.1645,56.4545 63.4615,56.0715 64.0145,55.0685 C64.5685,54.0655 64.1705,52.8205 63.1245,52.2895 C57.6705,49.5175 51.8215,49.9505 42.9365,53.7845 C41.8575,54.2505 41.3765,55.4675 41.8615,56.5035 C42.2185,57.2655 42.9995,57.7165 43.8165,57.7165" id="Fill-9" fill="#1E1D28"></path>
        <path d="M55.7266,57.948 C50.2726,57.064 44.7466,59.861 42.2756,64.75 C41.7586,65.771 42.2036,67.002 43.2676,67.498 C44.3306,67.995 45.6136,67.567 46.1296,66.546 C47.2656,64.3 49.1366,62.956 51.0826,62.33 C49.9156,63.537 48.8816,65.436 48.7056,68.413 C48.5106,71.694 49.4896,74.498 51.4586,76.309 C52.7866,77.531 54.4556,78.182 56.2186,78.182 C56.4486,78.182 56.6786,78.172 56.9126,78.149 C58.9866,77.95 60.8866,76.936 62.2626,75.294 C64.0276,73.188 64.7816,70.24 64.3856,66.994 C63.7986,62.186 60.4816,58.72 55.7266,57.948" id="Fill-11" fill="#1E1D28"></path>
        <path d="M86.8809,80.0261 C85.6529,80.5701 84.4689,80.8541 83.3519,80.8541 C81.8639,80.8541 80.4969,80.3501 79.3059,79.2841 C77.6269,87.9421 70.3439,100.7181 42.7339,100.7181 C9.3599,100.7181 16.2169,76.5771 16.5139,69.9191 C16.5239,69.6971 16.7259,68.9741 16.7979,68.8151 C18.3489,65.4361 20.8099,63.7841 23.1399,63.2161 C21.7769,64.3781 20.4529,66.3731 20.2509,69.7791 C20.0569,73.0581 21.0339,75.8621 23.0029,77.6731 C24.3309,78.8951 26.0009,79.5481 27.7659,79.5481 C27.9939,79.5481 28.2259,79.5371 28.4569,79.5141 C30.5319,79.3151 32.4329,78.3011 33.8089,76.6591 C35.5719,74.5531 36.3259,71.6061 35.9309,68.3591 C35.3229,63.3801 31.7339,59.7021 26.7849,58.9881 C23.4429,58.5091 19.4129,59.4971 16.2639,62.4211 C16.1349,60.8771 15.9829,59.3171 15.8359,57.7551 C19.5329,55.5521 24.5379,55.3371 30.3549,57.1471 C31.4799,57.4971 32.6879,56.9061 33.0529,55.8251 C33.4179,54.7461 32.8009,53.5861 31.6759,53.2351 C30.9799,53.0191 30.3079,52.8391 29.6489,52.6751 C30.9319,52.1851 32.0789,51.5321 33.0809,50.7931 C33.2759,51.0071 33.4199,51.1491 33.4849,51.2101 C34.3169,51.9991 35.4039,52.3961 36.4949,52.3961 C37.5079,52.3961 38.5229,52.0531 39.3349,51.3621 L39.4949,51.2261 C40.1659,50.6561 40.7959,50.1211 41.4299,49.5371 C41.7189,49.9411 42.0409,50.3151 42.3979,50.6481 C43.2149,51.4091 44.2919,51.8101 45.3829,51.8101 C45.9949,51.8101 46.6109,51.6841 47.1909,51.4251 C49.1199,50.5631 50.6419,49.3041 51.9849,48.1931 C53.7379,46.7421 54.8789,45.8511 56.1779,45.8111 C56.5639,45.7981 56.9309,45.7931 57.2799,45.7931 C59.7189,45.7931 61.2959,46.0661 62.9669,46.3541 C64.2769,46.5801 65.6189,46.8121 67.2829,46.9141 C66.5089,48.5051 65.6509,50.5151 65.6229,52.9321 C70.1359,54.6681 72.0309,59.1121 71.8969,63.4821 C71.8129,66.2251 73.3999,67.5421 74.5939,67.5421 C75.3019,67.5421 75.8719,67.0791 75.8719,66.1741 C75.8719,54.9391 82.2779,51.4151 86.5979,51.4151 C87.0689,51.4151 87.5179,51.4581 87.9289,51.5361 C101.3809,54.1131 96.2329,75.8821 86.8809,80.0261 M9.3269,59.1951 C9.6019,56.9661 10.4139,55.5311 11.2879,54.7141 C11.4019,56.3171 11.5469,57.9081 11.6939,59.4631 C12.0439,63.1301 12.3739,66.5941 12.2339,69.7431 C12.2079,70.3161 12.1079,71.1721 11.9909,72.1621 C11.9559,72.4611 11.9189,72.7751 11.8829,73.0991 C9.8009,69.5271 8.7299,64.0321 9.3269,59.1951 M8.6679,34.6691 C8.6679,30.0151 12.7869,24.1321 21.3969,22.8921 C18.6199,18.9121 20.8689,16.1881 22.3069,15.5081 C24.4349,15.9851 26.5449,18.8921 32.0929,18.8921 C35.0379,18.8921 38.9529,18.0721 44.3519,15.6331 C48.5389,13.7421 52.4849,12.9361 56.0399,12.9361 C65.1539,12.9361 71.7059,18.2341 73.1929,24.1321 C74.1919,23.8551 75.1399,23.7311 76.0349,23.7311 C81.7079,23.7311 85.2639,28.7021 85.9209,31.2051 C86.6829,34.1031 88.1179,40.0251 76.5069,42.0791 C73.2669,42.6521 70.9309,42.8551 69.0549,42.8551 C64.5359,42.8551 62.6819,41.6811 57.2799,41.6811 C56.8869,41.6811 56.4739,41.6871 56.0399,41.7001 C51.3959,41.8441 49.0389,46.0631 45.3819,47.6971 C43.5689,46.0081 43.1419,41.0221 43.1419,41.0221 C40.2569,45.1271 38.7569,46.3601 36.4939,48.2841 C36.4939,48.2841 34.1519,46.0631 34.6409,42.9781 C33.0349,45.2301 30.8309,48.0401 27.5119,49.0581 C27.2169,47.7171 27.1899,45.6751 27.4219,43.8641 C26.3359,46.2071 24.4039,49.2641 23.4439,50.7341 C17.8699,48.9821 17.9919,44.7461 17.9919,44.7461 C17.9919,44.7461 15.4099,49.7561 13.7649,49.8061 C13.7459,49.8031 13.7279,49.8031 13.7089,49.8011 C10.5299,47.0401 10.7869,40.7971 14.1069,36.3721 C13.8639,36.3841 13.6319,36.3901 13.4079,36.3901 C10.8899,36.3901 9.4919,35.6541 8.6679,34.6691 M76.6779,8.7081 C76.6979,8.7081 76.7179,8.7071 76.7379,8.7071 C79.4939,8.7081 80.3919,12.9531 78.5329,16.5461 C80.8989,14.1311 84.8249,10.9601 87.5029,10.9611 C88.7369,10.9611 89.7059,11.6341 90.1349,13.3661 C91.4619,18.7301 87.5429,20.3781 83.2469,20.3781 C80.8309,20.3781 78.2949,19.8561 76.5079,19.1821 C76.5039,19.1711 76.5099,19.1491 76.5099,19.1341 C76.5019,19.1411 76.4949,19.1491 76.4869,19.1561 C72.5179,14.2571 73.1429,8.7861 76.6779,8.7081 M100.2409,60.2011 C99.3989,53.3671 95.2169,48.7391 88.7669,47.5041 C88.5759,47.4671 88.3779,47.4481 88.1819,47.4211 C88.2089,45.3591 87.7439,43.5841 87.1559,42.0421 C87.8949,41.3981 88.5239,40.6871 89.0459,39.9061 C91.6159,36.0641 90.5359,31.9541 90.0749,30.1991 C89.5919,28.3591 88.3399,26.1401 86.4599,24.2101 C89.1829,23.7171 91.3459,22.5701 92.7959,20.8091 C94.0539,19.2821 95.3349,16.5871 94.3029,12.4161 C93.2879,8.3121 90.1249,6.8491 87.5039,6.8481 C86.4719,6.8481 84.8439,7.0871 82.7019,8.1431 C82.6229,8.0001 82.5379,7.8601 82.4499,7.7231 C81.1659,5.7351 79.0849,4.5951 76.7379,4.5951 L76.5799,4.5971 C73.8599,4.6571 71.5269,6.1271 70.3389,8.5281 C69.7259,9.7671 69.4509,11.1781 69.4799,12.6681 C65.6529,10.1601 61.0269,8.8241 56.0399,8.8241 C51.6109,8.8231 47.0649,9.8631 42.5269,11.9131 C38.3149,13.8161 34.8039,14.7801 32.0929,14.7801 C29.6029,14.7801 28.3039,13.9991 26.8009,13.0941 C25.8049,12.4961 24.6769,11.8171 23.2809,11.5041 C22.9599,11.4321 22.6329,11.3961 22.3069,11.3961 C21.6539,11.3961 21.0059,11.5391 20.4129,11.8191 C18.3459,12.7971 16.7329,14.7431 16.0959,17.0241 C15.8669,17.8441 15.7169,18.8751 15.8289,20.0661 C8.2949,22.8721 4.3839,29.0811 4.3839,34.6691 C4.3839,35.6061 4.7169,36.5141 5.3269,37.2441 C6.0439,38.1001 6.9029,38.7901 7.9009,39.3101 C6.6039,43.5201 7.0479,47.9021 9.2099,51.0261 C7.2979,52.3661 5.5509,54.8411 5.0719,58.7121 C4.1909,65.8491 6.2749,73.7131 10.1409,77.8341 C10.5639,78.2841 11.0059,78.6831 11.4619,79.0341 C11.3929,84.5361 12.4009,91.1351 17.2969,96.3941 C22.5089,101.9921 31.0669,104.8311 42.7339,104.8311 C55.9749,104.8311 66.3089,102.0071 73.4459,96.4391 C78.0299,92.8631 80.6349,88.6631 82.1099,84.8951 C82.5189,84.9431 82.9329,84.9661 83.3519,84.9661 C85.0769,84.9661 86.8689,84.5601 88.6769,83.7591 C96.7609,80.1771 101.2599,68.4681 100.2409,60.2011" id="Fill-13" fill="#1E1D28"></path>
    </g>
</svg>